<mxfile host="app.diagrams.net" modified="2020-10-05T20:21:47.384Z" agent="5.0 (Windows NT 10.0; Win64; x64) AppleWebKit/537.36 (KHTML, like Gecko) Chrome/85.0.4183.121 Safari/537.36" etag="Ytc15GNjkR03PYmPewZV" version="13.7.7" type="github">
  <diagram id="hZiYKJ1X23j9PYdmGMFu" name="Page-1">
    <mxGraphModel dx="1422" dy="618" grid="1" gridSize="10" guides="1" tooltips="1" connect="1" arrows="1" fold="1" page="1" pageScale="1" pageWidth="850" pageHeight="1100" background="#283618" math="0" shadow="0">
      <root>
        <mxCell id="0" />
        <mxCell id="1" parent="0" />
        <mxCell id="7KUGZiZySslubiKDUcVR-1" value="" style="whiteSpace=wrap;html=1;aspect=fixed;fillColor=#BC6C25;strokeColor=#DDA15E;fontColor=#FEFAE0;" vertex="1" parent="1">
          <mxGeometry x="345" y="40" width="425" height="425" as="geometry" />
        </mxCell>
        <mxCell id="7KUGZiZySslubiKDUcVR-2" value="Send email" style="ellipse;whiteSpace=wrap;html=1;fillColor=#BC6C25;strokeColor=#DDA15E;fontColor=#FEFAE0;" vertex="1" parent="1">
          <mxGeometry x="497.5" y="40" width="120" height="50" as="geometry" />
        </mxCell>
        <mxCell id="7KUGZiZySslubiKDUcVR-3" value="Send promotional email" style="ellipse;whiteSpace=wrap;html=1;fillColor=#BC6C25;strokeColor=#DDA15E;fontColor=#FEFAE0;" vertex="1" parent="1">
          <mxGeometry x="497.5" y="130" width="120" height="60" as="geometry" />
        </mxCell>
        <mxCell id="7KUGZiZySslubiKDUcVR-4" value="Login" style="ellipse;whiteSpace=wrap;html=1;fillColor=#BC6C25;strokeColor=#DDA15E;fontColor=#FEFAE0;" vertex="1" parent="1">
          <mxGeometry x="350" y="140" width="120" height="40" as="geometry" />
        </mxCell>
        <mxCell id="7KUGZiZySslubiKDUcVR-11" style="edgeStyle=orthogonalEdgeStyle;rounded=1;sketch=0;orthogonalLoop=1;jettySize=auto;html=1;exitX=0.5;exitY=0.5;exitDx=0;exitDy=0;exitPerimeter=0;strokeColor=#DDA15E;fillColor=#BC6C25;fontColor=#FEFAE0;" edge="1" parent="1" source="7KUGZiZySslubiKDUcVR-6" target="7KUGZiZySslubiKDUcVR-2">
          <mxGeometry relative="1" as="geometry" />
        </mxCell>
        <mxCell id="7KUGZiZySslubiKDUcVR-6" value="Customers" style="shape=umlActor;verticalLabelPosition=bottom;verticalAlign=top;html=1;outlineConnect=0;fillColor=#BC6C25;strokeColor=#DDA15E;fontColor=#FEFAE0;" vertex="1" parent="1">
          <mxGeometry x="170" y="90" width="30" height="60" as="geometry" />
        </mxCell>
        <mxCell id="7KUGZiZySslubiKDUcVR-13" style="edgeStyle=orthogonalEdgeStyle;rounded=1;sketch=0;orthogonalLoop=1;jettySize=auto;html=1;exitX=0.5;exitY=0.5;exitDx=0;exitDy=0;exitPerimeter=0;strokeColor=#DDA15E;fillColor=#BC6C25;fontColor=#FEFAE0;" edge="1" parent="1" source="7KUGZiZySslubiKDUcVR-7" target="7KUGZiZySslubiKDUcVR-3">
          <mxGeometry relative="1" as="geometry" />
        </mxCell>
        <mxCell id="7KUGZiZySslubiKDUcVR-7" value="Actor" style="shape=umlActor;verticalLabelPosition=bottom;verticalAlign=top;html=1;outlineConnect=0;fillColor=#BC6C25;strokeColor=#DDA15E;fontColor=#FEFAE0;" vertex="1" parent="1">
          <mxGeometry x="830" y="200" width="30" height="60" as="geometry" />
        </mxCell>
        <mxCell id="7KUGZiZySslubiKDUcVR-19" value="Lock Account" style="ellipse;whiteSpace=wrap;html=1;rounded=0;sketch=0;strokeColor=#DDA15E;fillColor=#BC6C25;fontColor=#FEFAE0;" vertex="1" parent="1">
          <mxGeometry x="345" y="232.5" width="120" height="40" as="geometry" />
        </mxCell>
        <mxCell id="7KUGZiZySslubiKDUcVR-22" value="" style="endArrow=classic;html=1;strokeColor=#DDA15E;fillColor=#BC6C25;fontColor=#FEFAE0;entryX=0.417;entryY=0;entryDx=0;entryDy=0;entryPerimeter=0;exitX=0.5;exitY=1;exitDx=0;exitDy=0;" edge="1" parent="1" source="7KUGZiZySslubiKDUcVR-4" target="7KUGZiZySslubiKDUcVR-19">
          <mxGeometry relative="1" as="geometry">
            <mxPoint x="370" y="300" as="sourcePoint" />
            <mxPoint x="470" y="300" as="targetPoint" />
            <Array as="points" />
          </mxGeometry>
        </mxCell>
        <mxCell id="7KUGZiZySslubiKDUcVR-23" value="Extends" style="edgeLabel;resizable=0;html=1;align=center;verticalAlign=middle;" connectable="0" vertex="1" parent="7KUGZiZySslubiKDUcVR-22">
          <mxGeometry relative="1" as="geometry" />
        </mxCell>
        <mxCell id="7KUGZiZySslubiKDUcVR-24" value="" style="endArrow=classic;html=1;strokeColor=#DDA15E;fillColor=#BC6C25;fontColor=#FEFAE0;entryX=0.5;entryY=1;entryDx=0;entryDy=0;exitX=0.5;exitY=0;exitDx=0;exitDy=0;" edge="1" parent="1" source="7KUGZiZySslubiKDUcVR-3" target="7KUGZiZySslubiKDUcVR-2">
          <mxGeometry relative="1" as="geometry">
            <mxPoint x="370" y="300" as="sourcePoint" />
            <mxPoint x="470" y="300" as="targetPoint" />
          </mxGeometry>
        </mxCell>
        <mxCell id="7KUGZiZySslubiKDUcVR-25" value="&amp;lt;&amp;lt;Includes&amp;gt;&amp;gt;" style="edgeLabel;resizable=0;html=1;align=center;verticalAlign=middle;" connectable="0" vertex="1" parent="7KUGZiZySslubiKDUcVR-24">
          <mxGeometry relative="1" as="geometry" />
        </mxCell>
        <mxCell id="7KUGZiZySslubiKDUcVR-26" value="Recall Emails" style="ellipse;whiteSpace=wrap;html=1;rounded=0;sketch=0;strokeColor=#DDA15E;fillColor=#BC6C25;fontColor=#FEFAE0;" vertex="1" parent="1">
          <mxGeometry x="350" y="330" width="120" height="60" as="geometry" />
        </mxCell>
        <mxCell id="7KUGZiZySslubiKDUcVR-27" value="Free" style="shape=umlActor;verticalLabelPosition=bottom;verticalAlign=top;html=1;outlineConnect=0;rounded=0;sketch=0;strokeColor=#DDA15E;fillColor=#BC6C25;fontColor=#FEFAE0;" vertex="1" parent="1">
          <mxGeometry x="230" y="242.5" width="30" height="60" as="geometry" />
        </mxCell>
        <mxCell id="7KUGZiZySslubiKDUcVR-28" value="Premium" style="shape=umlActor;verticalLabelPosition=bottom;verticalAlign=top;html=1;outlineConnect=0;rounded=0;sketch=0;strokeColor=#DDA15E;fillColor=#BC6C25;fontColor=#FEFAE0;" vertex="1" parent="1">
          <mxGeometry x="90" y="242.5" width="30" height="60" as="geometry" />
        </mxCell>
        <mxCell id="7KUGZiZySslubiKDUcVR-30" value="" style="endArrow=classic;html=1;strokeColor=#DDA15E;fillColor=#BC6C25;fontColor=#FEFAE0;" edge="1" parent="1">
          <mxGeometry relative="1" as="geometry">
            <mxPoint x="370" y="300" as="sourcePoint" />
            <mxPoint x="470" y="300" as="targetPoint" />
          </mxGeometry>
        </mxCell>
        <mxCell id="7KUGZiZySslubiKDUcVR-31" value="" style="shape=message;html=1;outlineConnect=0;" vertex="1" parent="7KUGZiZySslubiKDUcVR-30">
          <mxGeometry width="20" height="14" relative="1" as="geometry">
            <mxPoint x="-10" y="-7" as="offset" />
          </mxGeometry>
        </mxCell>
        <mxCell id="7KUGZiZySslubiKDUcVR-32" value="" style="endArrow=classic;html=1;strokeColor=#DDA15E;fillColor=#BC6C25;fontColor=#FEFAE0;exitX=-0.008;exitY=0.633;exitDx=0;exitDy=0;exitPerimeter=0;edgeStyle=orthogonalEdgeStyle;" edge="1" parent="1" source="7KUGZiZySslubiKDUcVR-26">
          <mxGeometry width="50" height="50" relative="1" as="geometry">
            <mxPoint x="60" y="352.5" as="sourcePoint" />
            <mxPoint x="110" y="302.5" as="targetPoint" />
          </mxGeometry>
        </mxCell>
      </root>
    </mxGraphModel>
  </diagram>
</mxfile>
